o piller
usemtl None
s off
v 1.0 0.0 -2.0
v 0.8090169943749475 0.5877852522924731 -2.0
v 0.30901699437494745 0.9510565162951535 -2.0
v -0.30901699437494734 0.9510565162951536 -2.0
v -0.8090169943749473 0.5877852522924732 -2.0
v -1.0 1.2246467991473532e-16 -2.0
v -0.8090169943749475 -0.587785252292473 -2.0
v -0.30901699437494756 -0.9510565162951535 -2.0
v 0.30901699437494723 -0.9510565162951536 -2.0
v 0.8090169943749473 -0.5877852522924734 -2.0
v 1.0 0.0 2.0
v 0.8090169943749475 0.5877852522924731 2.0
v 0.30901699437494745 0.9510565162951535 2.0
v -0.30901699437494734 0.9510565162951536 2.0
v -0.8090169943749473 0.5877852522924732 2.0
v -1.0 1.2246467991473532e-16 2.0
v -0.8090169943749475 -0.587785252292473 2.0
v -0.30901699437494756 -0.9510565162951535 2.0
v 0.30901699437494723 -0.9510565162951536 2.0
v 0.8090169943749473 -0.5877852522924734 2.0
vn 0.9510565162951536 0.3090169943749474 0.0
vn 0.5877852522924731 0.8090169943749475 0.0
vn 1.7963785889362148e-16 1.0 0.0
vn -0.5877852522924731 0.8090169943749475 0.0
vn -0.9510565162951535 0.3090169943749475 0.0
vn -0.9510565162951536 -0.3090169943749474 0.0
vn -0.5877852522924732 -0.8090169943749473 0.0
vn -1.7963785889362148e-16 -1.0 0.0
vn 0.5877852522924728 -0.8090169943749476 0.0
vn 0.9510565162951535 -0.3090169943749474 0.0
vn 0.0 0.0 -1.0
vn 0.0 0.0 -1.0
vn 0.0 0.0 -1.0
vn 0.0 0.0 -1.0
vn 0.0 0.0 1.0
vn 0.0 0.0 1.0
vn 0.0 0.0 1.0
vn 0.0 0.0 1.0
f 1//1 2//1 12//1 11//1
f 2//2 3//2 13//2 12//2
f 3//3 4//3 14//3 13//3
f 4//4 5//4 15//4 14//4
f 5//5 6//5 16//5 15//5
f 6//6 7//6 17//6 16//6
f 7//7 8//7 18//7 17//7
f 8//8 9//8 19//8 18//8
f 9//9 10//9 20//9 19//9
f 10//10 1//10 11//10 20//10
f 1//11 10//11 9//11 2//11
f 2//12 9//12 8//12 3//12
f 3//13 8//13 7//13 4//13
f 4//14 7//14 6//14 5//14
f 12//15 19//15 20//15 11//15
f 13//16 18//16 19//16 12//16
f 14//17 17//17 18//17 13//17
f 15//18 16//18 17//18 14//18
